<?xml version="1.0" standalone="no"?>
<!DOCTYPE svg PUBLIC "-//W3C//DTD SVG 20010904//EN"
 "http://www.w3.org/TR/2001/REC-SVG-20010904/DTD/svg10.dtd">
<svg version="1.0" xmlns="http://www.w3.org/2000/svg"
 width="178.000000pt" height="172.000000pt" viewBox="0 0 178.000000 172.000000"
 preserveAspectRatio="xMidYMid meet">

<g transform="translate(0.000000,172.000000) scale(0.100000,-0.100000)"
fill="#000000" stroke="none">
<path d="M262 1423 c-235 -236 -304 -565 -183 -867 70 -174 197 -316 371 -414
58 -33 190 -86 190 -76 0 3 -25 57 -55 119 -30 63 -55 116 -55 119 0 8 54 -2
130 -24 85 -24 248 -38 274 -23 13 7 -7 11 -75 16 -157 10 -283 63 -393 166
-116 110 -186 260 -186 402 0 39 -4 69 -10 69 -5 0 -10 -4 -10 -10 0 -23 -22
-8 -35 25 -8 19 -35 75 -60 125 -34 71 -43 98 -38 123 12 65 66 157 140 237
41 44 72 80 69 80 -4 0 -37 -30 -74 -67z"/>
</g>
</svg>
